<svg width="236" height="102" viewBox="0 0 236 102" fill="none" xmlns="http://www.w3.org/2000/svg">
<g filter="url(#filter0_d)">
<path d="M20.3755 22.172C20.0235 21.952 19.5835 21.996 19.3195 22.348L17.9115 24.328C17.6035 24.724 17.1635 24.988 16.6355 24.988H16.5475C16.0195 24.988 15.5355 24.724 15.2275 24.328L9.28752 15.968C9.06752 15.704 8.75952 15.616 8.45152 15.704C8.14352 15.792 7.92352 16.1 7.92352 16.408V33.964C7.92352 34.844 7.21952 35.548 6.33952 35.548C5.50352 35.548 4.75552 34.8 4.75552 33.964V21.688C4.75552 21.248 4.44752 20.94 4.00752 20.94C3.61152 20.94 3.30352 21.248 3.30352 21.688V33.964C3.30352 35.636 4.66752 37 6.33952 37C8.01152 37 9.41952 35.636 9.41952 33.964V18.74L14.0395 25.208C14.6115 26 15.5355 26.484 16.5475 26.484H16.6355C17.6475 26.484 18.5275 26 19.0995 25.208L20.5515 23.228C20.7715 22.876 20.6835 22.392 20.3755 22.172ZM26.7995 6.332H26.7555C25.7875 6.332 24.9075 6.772 24.2915 7.564L16.5915 18.256L8.89152 7.608C8.36352 6.816 7.39552 6.332 6.42752 6.332H6.33952C4.62352 6.332 3.30352 7.696 3.30352 9.368V16.76C3.30352 17.156 3.61152 17.508 4.00752 17.508C4.44752 17.508 4.75552 17.156 4.75552 16.76V9.368C4.75552 8.532 5.50352 7.828 6.33952 7.828H6.42752C6.82352 7.828 7.39552 8.004 7.65952 8.444L15.9755 19.972C16.1075 20.192 16.3275 20.28 16.5915 20.28C16.8115 20.28 17.0315 20.192 17.2075 19.972L25.4795 8.444C25.8315 8.048 26.2715 7.828 26.7555 7.828H26.7995C27.6795 7.828 28.4275 8.532 28.4275 9.368V33.964C28.4275 34.8 27.6795 35.548 26.7995 35.548C25.9635 35.548 25.2595 34.844 25.2595 33.964V16.408C25.2595 16.1 25.0395 15.792 24.7315 15.704C24.4235 15.616 24.1155 15.704 23.8955 15.968L21.2115 19.752C20.9475 20.104 21.0355 20.544 21.3875 20.808C21.6955 21.028 22.1795 20.94 22.3995 20.632L23.7635 18.74V33.964C23.7635 35.636 25.1275 37 26.7995 37C28.4715 37 29.8795 35.636 29.8795 33.964V9.368C29.8795 7.74 28.5155 6.376 26.7995 6.332ZM58.747 32.864L53.467 18.784C53.335 18.388 52.895 18.212 52.499 18.344C52.103 18.476 51.927 18.916 52.059 19.312L57.339 33.392C57.647 34.228 57.251 35.152 56.415 35.46C56.327 35.504 56.151 35.548 55.887 35.548C55.227 35.548 54.655 35.152 54.435 34.536L52.411 29.124C52.323 28.816 52.015 28.64 51.707 28.64H41.587C41.279 28.64 40.971 28.816 40.883 29.124L38.815 34.536C38.595 35.152 38.023 35.548 37.363 35.548C37.143 35.548 36.967 35.504 36.835 35.46C35.999 35.152 35.603 34.228 35.867 33.392L45.107 8.84C45.327 8.224 45.987 7.828 46.603 7.828H46.647C47.307 7.828 47.879 8.224 48.143 8.84L50.915 16.276C51.091 16.672 51.531 16.892 51.883 16.716C52.279 16.584 52.455 16.144 52.323 15.748L49.507 8.268C49.023 7.08 47.879 6.332 46.603 6.376C45.415 6.332 44.183 7.124 43.699 8.312L34.503 32.908C33.931 34.536 34.723 36.252 36.307 36.868C36.659 36.956 37.011 37 37.363 37C38.595 37 39.739 36.252 40.223 35.064L42.071 30.136H51.179L53.071 35.064C53.467 36.252 54.611 37 55.887 37C56.107 37 56.547 37 56.943 36.868C58.527 36.252 59.319 34.536 58.747 32.864ZM44.359 21.776C44.007 21.644 43.567 21.864 43.391 22.216L42.555 24.548C42.467 24.768 42.467 25.032 42.643 25.208C42.775 25.428 42.995 25.56 43.259 25.56H49.991C50.255 25.56 50.475 25.428 50.607 25.208C50.739 25.032 50.783 24.768 50.695 24.548L47.307 15.572C47.219 15.264 46.911 15.088 46.603 15.088C46.295 15.088 46.031 15.264 45.943 15.572L44.491 19.356C44.359 19.708 44.535 20.148 44.931 20.28C45.327 20.456 45.767 20.236 45.899 19.884L46.603 17.948L48.935 24.064H44.315L44.799 22.744C44.931 22.392 44.755 21.952 44.359 21.776ZM80.0498 30.884H69.4898V18.872C69.4898 18.476 69.1378 18.124 68.7418 18.124C68.3018 18.124 67.9938 18.476 67.9938 18.872V31.632C67.9938 32.072 68.3018 32.38 68.7418 32.38H80.0498C80.8858 32.38 81.5898 33.128 81.5898 33.964C81.5898 34.8 80.8858 35.548 80.0498 35.548H66.4098C65.5298 35.548 64.8258 34.844 64.8258 33.964V9.368C64.8258 8.488 65.5298 7.828 66.4098 7.828C67.2898 7.828 67.9938 8.488 67.9938 9.368V15.176C67.9938 15.572 68.3018 15.924 68.7418 15.924C69.1378 15.924 69.4898 15.572 69.4898 15.176V9.368C69.4898 7.696 68.0818 6.332 66.4098 6.332C64.6938 6.332 63.3738 7.696 63.3738 9.368V33.964C63.3738 35.636 64.6938 37 66.4098 37H80.0498C81.6778 37 83.0858 35.636 83.0858 33.964C83.0858 32.292 81.6778 30.884 80.0498 30.884ZM111.899 32.864L106.619 18.784C106.487 18.388 106.047 18.212 105.651 18.344C105.255 18.476 105.079 18.916 105.211 19.312L110.491 33.392C110.799 34.228 110.403 35.152 109.567 35.46C109.479 35.504 109.303 35.548 109.039 35.548C108.379 35.548 107.807 35.152 107.587 34.536L105.563 29.124C105.475 28.816 105.167 28.64 104.859 28.64H94.7393C94.4313 28.64 94.1233 28.816 94.0353 29.124L91.9673 34.536C91.7473 35.152 91.1753 35.548 90.5153 35.548C90.2953 35.548 90.1193 35.504 89.9873 35.46C89.1513 35.152 88.7553 34.228 89.0193 33.392L98.2593 8.84C98.4793 8.224 99.1393 7.828 99.7553 7.828H99.7993C100.459 7.828 101.031 8.224 101.295 8.84L104.067 16.276C104.243 16.672 104.683 16.892 105.035 16.716C105.431 16.584 105.607 16.144 105.475 15.748L102.659 8.268C102.175 7.08 101.031 6.332 99.7553 6.376C98.5673 6.332 97.3353 7.124 96.8513 8.312L87.6553 32.908C87.0833 34.536 87.8753 36.252 89.4593 36.868C89.8113 36.956 90.1633 37 90.5153 37C91.7473 37 92.8913 36.252 93.3753 35.064L95.2233 30.136H104.331L106.223 35.064C106.619 36.252 107.763 37 109.039 37C109.259 37 109.699 37 110.095 36.868C111.679 36.252 112.471 34.536 111.899 32.864ZM97.5113 21.776C97.1593 21.644 96.7193 21.864 96.5433 22.216L95.7073 24.548C95.6193 24.768 95.6193 25.032 95.7953 25.208C95.9273 25.428 96.1473 25.56 96.4113 25.56H103.143C103.407 25.56 103.627 25.428 103.759 25.208C103.891 25.032 103.935 24.768 103.847 24.548L100.459 15.572C100.371 15.264 100.063 15.088 99.7553 15.088C99.4473 15.088 99.1833 15.264 99.0953 15.572L97.6433 19.356C97.5113 19.708 97.6873 20.148 98.0833 20.28C98.4793 20.456 98.9193 20.236 99.0513 19.884L99.7553 17.948L102.087 24.064H97.4673L97.9513 22.744C98.0833 22.392 97.9073 21.952 97.5113 21.776ZM117.978 21.248C118.022 18.344 118.946 15.528 120.662 13.108C121.982 11.26 123.786 9.72 125.854 8.62C127.922 7.564 130.254 6.992 132.586 6.992C135.974 6.992 139.142 8.048 141.738 10.072C142.398 10.644 142.53 11.656 142.046 12.36C141.474 13.064 140.418 13.196 139.758 12.712C137.778 11.084 135.314 10.248 132.586 10.248C131.97 10.248 131.398 10.292 130.826 10.38C130.43 10.424 130.122 10.82 130.21 11.216C130.254 11.612 130.65 11.92 131.046 11.832C131.574 11.788 132.058 11.744 132.586 11.744C134.962 11.744 137.118 12.448 138.834 13.856C140.11 14.868 142.134 14.604 143.19 13.284C143.234 13.284 143.234 13.284 143.234 13.24C144.202 11.876 143.982 9.984 142.662 8.884C139.802 6.64 136.282 5.496 132.542 5.496C129.99 5.496 127.438 6.112 125.15 7.3C122.906 8.488 120.926 10.204 119.43 12.228C117.538 14.912 116.526 18.036 116.526 21.248C116.526 25.34 118.11 29.212 121.014 32.16C121.19 32.336 121.366 32.38 121.542 32.38C121.762 32.38 121.938 32.336 122.07 32.16C122.378 31.896 122.378 31.412 122.07 31.104C119.474 28.464 118.022 24.944 117.978 21.248ZM143.234 29.256C143.234 29.212 143.19 29.212 143.19 29.212C142.134 27.936 140.154 27.672 138.834 28.64C137.03 30.048 134.962 30.752 132.586 30.752C129.99 30.752 127.482 29.784 125.59 27.98C123.786 26.22 122.774 23.756 122.774 21.248C122.774 18.74 123.742 16.408 125.546 14.516C126.338 13.812 127.174 13.24 128.098 12.756C128.494 12.58 128.626 12.14 128.45 11.788C128.274 11.392 127.834 11.26 127.482 11.436C126.382 11.964 125.414 12.624 124.534 13.46C122.378 15.66 121.278 18.344 121.278 21.248C121.278 24.152 122.466 27.012 124.534 29.036C126.734 31.104 129.594 32.248 132.586 32.248C135.314 32.248 137.734 31.456 139.714 29.828C140.374 29.344 141.474 29.476 142.046 30.136C142.53 30.884 142.442 31.896 141.738 32.424C139.142 34.448 135.974 35.548 132.586 35.548C130.122 35.548 127.746 34.932 125.59 33.744C125.238 33.568 124.798 33.7 124.578 34.052C124.402 34.448 124.534 34.888 124.886 35.064C127.218 36.34 129.902 37 132.586 37C136.282 37 139.802 35.856 142.662 33.612C143.982 32.556 144.202 30.62 143.234 29.256ZM169.049 30.004C168.609 30.004 168.301 30.356 168.301 30.752V33.964C168.301 34.844 167.597 35.548 166.717 35.548C165.793 35.548 165.133 34.844 165.133 33.964V23.976C165.133 23.536 164.825 23.228 164.385 23.228H153.605C153.165 23.228 152.857 23.536 152.857 23.976V33.964C152.857 34.844 152.153 35.548 151.273 35.548C150.393 35.548 149.689 34.844 149.689 33.964V9.368C149.689 8.488 150.393 7.828 151.273 7.828C152.153 7.828 152.857 8.488 152.857 9.368V19.356C152.857 19.796 153.165 20.104 153.605 20.104H157.433C157.829 20.104 158.181 19.796 158.181 19.356C158.181 18.96 157.829 18.608 157.433 18.608H154.353V9.368C154.353 7.652 152.989 6.332 151.273 6.332C149.557 6.332 148.237 7.652 148.237 9.368V33.964C148.237 35.68 149.557 37 151.273 37C152.989 37 154.353 35.68 154.353 33.964V24.724H163.637V33.964C163.637 35.68 165.001 37 166.717 37C168.433 37 169.797 35.68 169.797 33.964V30.752C169.797 30.356 169.445 30.004 169.049 30.004ZM166.717 6.332C165.001 6.332 163.637 7.652 163.637 9.368V18.608H160.029C159.633 18.608 159.281 18.96 159.281 19.356C159.281 19.796 159.633 20.104 160.029 20.104H164.385C164.825 20.104 165.133 19.796 165.133 19.356V9.368C165.133 8.488 165.793 7.828 166.717 7.828C167.597 7.828 168.301 8.488 168.301 9.368V27.056C168.301 27.452 168.609 27.804 169.049 27.804C169.445 27.804 169.797 27.452 169.797 27.056V9.368C169.797 7.652 168.433 6.332 166.717 6.332ZM177.226 6.332C175.51 6.332 174.19 7.652 174.19 9.368V15.352C174.19 15.748 174.498 16.1 174.894 16.1C175.334 16.1 175.642 15.748 175.642 15.352V9.368C175.642 8.488 176.346 7.828 177.226 7.828C178.106 7.828 178.81 8.488 178.81 9.368V24.152C178.81 24.548 179.118 24.856 179.558 24.856C179.954 24.856 180.306 24.548 180.306 24.152V9.368C180.306 7.696 178.898 6.332 177.226 6.332ZM179.558 26.88C179.118 26.88 178.81 27.232 178.81 27.628V33.964C178.81 34.844 178.106 35.548 177.226 35.548C176.346 35.548 175.642 34.844 175.642 33.964V18.432C175.642 17.992 175.334 17.684 174.894 17.684C174.498 17.684 174.19 17.992 174.19 18.432V33.964C174.19 35.68 175.51 37 177.226 37C178.898 37 180.306 35.636 180.306 33.964V27.628C180.306 27.232 179.954 26.88 179.558 26.88ZM198.93 20.5C198.49 20.5 198.182 20.852 198.182 21.248V33.964C198.182 34.844 197.522 35.548 196.642 35.548C195.762 35.548 195.058 34.844 195.058 33.964V11.7C195.058 11.304 194.75 10.952 194.31 10.952H187.754C186.874 10.952 186.17 10.248 186.17 9.368C186.17 8.488 186.874 7.828 187.754 7.828C188.15 7.828 188.502 7.476 188.502 7.08C188.502 6.64 188.15 6.332 187.754 6.332C186.038 6.332 184.718 7.652 184.718 9.368C184.718 11.04 186.038 12.448 187.754 12.448H193.606V33.964C193.606 35.636 194.97 37 196.642 37C198.314 37 199.678 35.68 199.678 33.964V21.248C199.678 20.852 199.326 20.5 198.93 20.5ZM205.574 6.332H191.714C191.318 6.332 190.966 6.64 190.966 7.08C190.966 7.476 191.318 7.828 191.714 7.828H205.574C206.41 7.828 207.114 8.488 207.114 9.368C207.114 10.204 206.366 10.952 205.574 10.952H198.93C198.49 10.952 198.182 11.304 198.182 11.7V17.288C198.182 17.684 198.49 18.036 198.93 18.036C199.326 18.036 199.678 17.684 199.678 17.288V12.448H205.574C207.202 12.448 208.61 11.04 208.61 9.368C208.61 7.696 207.246 6.332 205.574 6.332ZM222.055 35.548H216.291C216.159 35.46 215.983 35.46 215.851 35.504C215.059 35.416 214.443 34.756 214.443 33.964V17.552C214.443 17.156 214.135 16.804 213.695 16.804C213.299 16.804 212.991 17.156 212.991 17.552V33.964C212.991 35.636 214.355 37 216.027 37C216.027 37 216.027 37 216.071 37H216.115H222.055C222.451 37 222.803 36.692 222.803 36.296C222.803 35.856 222.451 35.548 222.055 35.548ZM213.695 15.132C214.135 15.132 214.443 14.824 214.443 14.384V9.368C214.443 8.488 215.147 7.828 216.027 7.828H229.667C230.503 7.828 231.207 8.532 231.207 9.368C231.207 10.204 230.503 10.952 229.667 10.952H225.883C225.487 10.952 225.135 11.304 225.135 11.7C225.135 12.096 225.487 12.448 225.883 12.448H229.667C231.295 12.448 232.703 11.04 232.703 9.368C232.703 7.696 231.339 6.332 229.667 6.332H216.027C214.311 6.332 212.991 7.652 212.991 9.368V14.384C212.991 14.824 213.299 15.132 213.695 15.132ZM229.667 30.884H219.107V24.724H228.083C229.755 24.724 231.119 23.316 231.119 21.644C231.119 19.972 229.711 18.608 228.083 18.608H219.107V12.448H222.099C222.495 12.448 222.847 12.096 222.847 11.7C222.847 11.304 222.495 10.952 222.099 10.952H218.359C217.919 10.952 217.611 11.304 217.611 11.7V19.312C217.611 19.752 217.919 20.06 218.359 20.06H228.083C228.875 20.06 229.623 20.808 229.623 21.644C229.623 22.524 228.919 23.228 228.083 23.228H218.359C217.919 23.228 217.611 23.536 217.611 23.976V31.632C217.611 32.072 217.919 32.38 218.359 32.38H229.667C230.503 32.38 231.207 33.128 231.207 33.964C231.207 34.8 230.503 35.548 229.667 35.548H225.443C225.003 35.548 224.695 35.856 224.695 36.296C224.695 36.692 225.003 37 225.443 37H229.667C231.295 37 232.703 35.636 232.703 33.964C232.703 32.292 231.295 30.884 229.667 30.884Z" fill="#0BDA51"/>
</g>
<g filter="url(#filter1_d)">
<path d="M34.3154 74.608H32.2474C31.8074 74.608 31.4994 74.916 31.4994 75.312C31.4994 75.752 31.8074 76.06 32.2474 76.06H34.3154C35.1074 76.06 35.8554 76.808 35.8554 77.644C35.8554 78.524 35.1514 79.228 34.3154 79.228H24.5914C24.1514 79.228 23.8434 79.536 23.8434 79.976V89.964C23.8434 90.844 23.1394 91.548 22.2594 91.548C21.3794 91.548 20.6754 90.844 20.6754 89.964V73.816C20.6754 73.376 20.3674 73.068 19.9274 73.068C19.5314 73.068 19.2234 73.376 19.2234 73.816V89.964C19.2234 91.636 20.5874 93 22.2594 93C23.9314 93 25.3394 91.636 25.3394 89.964V80.724H34.3154C35.9874 80.724 37.3514 79.316 37.3514 77.644C37.3514 75.972 35.9434 74.608 34.3154 74.608ZM35.8994 62.332H22.2594C20.5434 62.332 19.2234 63.696 19.2234 65.368V70.34C19.2234 70.736 19.5314 71.088 19.9274 71.088C20.3674 71.088 20.6754 70.736 20.6754 70.34V65.368C20.6754 64.488 21.3794 63.828 22.2594 63.828H35.8994C36.7354 63.828 37.4394 64.532 37.4394 65.368C37.4394 66.204 36.7354 66.952 35.8994 66.952H24.5914C24.1514 66.952 23.8434 67.304 23.8434 67.7V75.312C23.8434 75.752 24.1514 76.06 24.5914 76.06H28.1994C28.6394 76.06 28.9474 75.752 28.9474 75.312C28.9474 74.916 28.6394 74.608 28.1994 74.608H25.3394V68.448H35.8994C37.5274 68.448 38.9354 67.04 38.9354 65.368C38.9354 63.696 37.5274 62.332 35.8994 62.332ZM67.7489 88.864L62.4689 74.784C62.3369 74.388 61.8969 74.212 61.5009 74.344C61.1049 74.476 60.9289 74.916 61.0609 75.312L66.3409 89.392C66.6489 90.228 66.2529 91.152 65.4169 91.46C65.3289 91.504 65.1529 91.548 64.8889 91.548C64.2289 91.548 63.6569 91.152 63.4369 90.536L61.4129 85.124C61.3249 84.816 61.0169 84.64 60.7089 84.64H50.5889C50.2809 84.64 49.9729 84.816 49.8849 85.124L47.8169 90.536C47.5969 91.152 47.0249 91.548 46.3649 91.548C46.1449 91.548 45.9689 91.504 45.8369 91.46C45.0009 91.152 44.6049 90.228 44.8689 89.392L54.1089 64.84C54.3289 64.224 54.9889 63.828 55.6049 63.828H55.6489C56.3089 63.828 56.8809 64.224 57.1449 64.84L59.9169 72.276C60.0929 72.672 60.5329 72.892 60.8849 72.716C61.2809 72.584 61.4569 72.144 61.3249 71.748L58.5089 64.268C58.0249 63.08 56.8809 62.332 55.6049 62.376C54.4169 62.332 53.1849 63.124 52.7009 64.312L43.5049 88.908C42.9329 90.536 43.7249 92.252 45.3089 92.868C45.6609 92.956 46.0129 93 46.3649 93C47.5969 93 48.7409 92.252 49.2249 91.064L51.0729 86.136H60.1809L62.0729 91.064C62.4689 92.252 63.6129 93 64.8889 93C65.1089 93 65.5489 93 65.9449 92.868C67.5289 92.252 68.3209 90.536 67.7489 88.864ZM53.3609 77.776C53.0089 77.644 52.5689 77.864 52.3929 78.216L51.5569 80.548C51.4689 80.768 51.4689 81.032 51.6449 81.208C51.7769 81.428 51.9969 81.56 52.2609 81.56H58.9929C59.2569 81.56 59.4769 81.428 59.6089 81.208C59.7409 81.032 59.7849 80.768 59.6969 80.548L56.3089 71.572C56.2209 71.264 55.9129 71.088 55.6049 71.088C55.2969 71.088 55.0329 71.264 54.9449 71.572L53.4929 75.356C53.3609 75.708 53.5369 76.148 53.9329 76.28C54.3289 76.456 54.7689 76.236 54.9009 75.884L55.6049 73.948L57.9369 80.064H53.3169L53.8009 78.744C53.9329 78.392 53.7569 77.952 53.3609 77.776ZM73.8278 77.248C73.8718 74.344 74.7958 71.528 76.5118 69.108C77.8318 67.26 79.6358 65.72 81.7038 64.62C83.7718 63.564 86.1038 62.992 88.4358 62.992C91.8238 62.992 94.9918 64.048 97.5878 66.072C98.2478 66.644 98.3798 67.656 97.8958 68.36C97.3238 69.064 96.2678 69.196 95.6078 68.712C93.6278 67.084 91.1638 66.248 88.4358 66.248C87.8198 66.248 87.2478 66.292 86.6758 66.38C86.2798 66.424 85.9718 66.82 86.0598 67.216C86.1038 67.612 86.4998 67.92 86.8958 67.832C87.4238 67.788 87.9078 67.744 88.4358 67.744C90.8118 67.744 92.9678 68.448 94.6838 69.856C95.9598 70.868 97.9838 70.604 99.0398 69.284C99.0838 69.284 99.0838 69.284 99.0838 69.24C100.052 67.876 99.8318 65.984 98.5118 64.884C95.6518 62.64 92.1318 61.496 88.3918 61.496C85.8398 61.496 83.2878 62.112 80.9998 63.3C78.7558 64.488 76.7758 66.204 75.2798 68.228C73.3878 70.912 72.3758 74.036 72.3758 77.248C72.3758 81.34 73.9598 85.212 76.8638 88.16C77.0398 88.336 77.2158 88.38 77.3918 88.38C77.6118 88.38 77.7878 88.336 77.9198 88.16C78.2278 87.896 78.2278 87.412 77.9198 87.104C75.3238 84.464 73.8718 80.944 73.8278 77.248ZM99.0838 85.256C99.0838 85.212 99.0398 85.212 99.0398 85.212C97.9838 83.936 96.0038 83.672 94.6838 84.64C92.8798 86.048 90.8118 86.752 88.4358 86.752C85.8398 86.752 83.3318 85.784 81.4398 83.98C79.6358 82.22 78.6238 79.756 78.6238 77.248C78.6238 74.74 79.5918 72.408 81.3958 70.516C82.1878 69.812 83.0238 69.24 83.9478 68.756C84.3438 68.58 84.4758 68.14 84.2998 67.788C84.1238 67.392 83.6838 67.26 83.3318 67.436C82.2318 67.964 81.2638 68.624 80.3838 69.46C78.2278 71.66 77.1278 74.344 77.1278 77.248C77.1278 80.152 78.3158 83.012 80.3838 85.036C82.5838 87.104 85.4438 88.248 88.4358 88.248C91.1638 88.248 93.5838 87.456 95.5638 85.828C96.2238 85.344 97.3238 85.476 97.8958 86.136C98.3798 86.884 98.2918 87.896 97.5878 88.424C94.9918 90.448 91.8238 91.548 88.4358 91.548C85.9718 91.548 83.5958 90.932 81.4398 89.744C81.0878 89.568 80.6478 89.7 80.4278 90.052C80.2518 90.448 80.3838 90.888 80.7358 91.064C83.0678 92.34 85.7518 93 88.4358 93C92.1318 93 95.6518 91.856 98.5118 89.612C99.8318 88.556 100.052 86.62 99.0838 85.256ZM118.299 76.5C117.859 76.5 117.551 76.852 117.551 77.248V89.964C117.551 90.844 116.891 91.548 116.011 91.548C115.131 91.548 114.427 90.844 114.427 89.964V67.7C114.427 67.304 114.119 66.952 113.679 66.952H107.123C106.243 66.952 105.539 66.248 105.539 65.368C105.539 64.488 106.243 63.828 107.123 63.828C107.519 63.828 107.871 63.476 107.871 63.08C107.871 62.64 107.519 62.332 107.123 62.332C105.407 62.332 104.087 63.652 104.087 65.368C104.087 67.04 105.407 68.448 107.123 68.448H112.975V89.964C112.975 91.636 114.339 93 116.011 93C117.683 93 119.047 91.68 119.047 89.964V77.248C119.047 76.852 118.695 76.5 118.299 76.5ZM124.943 62.332H111.083C110.687 62.332 110.335 62.64 110.335 63.08C110.335 63.476 110.687 63.828 111.083 63.828H124.943C125.779 63.828 126.483 64.488 126.483 65.368C126.483 66.204 125.735 66.952 124.943 66.952H118.299C117.859 66.952 117.551 67.304 117.551 67.7V73.288C117.551 73.684 117.859 74.036 118.299 74.036C118.695 74.036 119.047 73.684 119.047 73.288V68.448H124.943C126.571 68.448 127.979 67.04 127.979 65.368C127.979 63.696 126.615 62.332 124.943 62.332ZM138.696 72.936C138.3 72.804 137.86 73.024 137.728 73.376C137.332 74.652 137.112 75.928 137.112 77.248C137.112 80.196 138.212 83.056 140.148 85.036C142.084 87.104 144.68 88.248 147.452 88.248C150.092 88.248 152.644 87.104 154.58 85.036C156.516 83.012 157.616 80.152 157.616 77.248C157.616 74.344 156.516 71.528 154.58 69.46C152.644 67.392 150.136 66.248 147.452 66.248C144.636 66.248 142.084 67.348 140.148 69.416C140.016 69.548 139.884 69.724 139.752 69.856C139.488 70.164 139.532 70.648 139.84 70.912C140.148 71.176 140.632 71.132 140.896 70.824C140.984 70.692 141.116 70.56 141.204 70.472C142.876 68.668 145.032 67.744 147.452 67.744C149.696 67.744 151.852 68.712 153.48 70.472C155.152 72.232 156.12 74.74 156.12 77.248C156.12 79.8 155.152 82.264 153.48 84.024C151.808 85.784 149.696 86.752 147.452 86.752C145.076 86.752 142.92 85.828 141.204 83.98C139.532 82.264 138.608 79.844 138.608 77.248C138.608 76.104 138.784 74.96 139.136 73.86C139.268 73.508 139.092 73.068 138.696 72.936ZM157.968 66.204C155.328 63.256 151.412 61.496 147.452 61.496C143.36 61.496 139.444 63.212 136.672 66.204C133.856 69.152 132.36 73.068 132.36 77.248C132.36 81.472 133.9 85.388 136.672 88.336C139.488 91.328 143.404 93 147.452 93C151.368 93 155.284 91.24 157.968 88.336C158.056 88.204 158.144 88.116 158.232 88.028C158.496 87.72 158.496 87.236 158.188 86.972C157.88 86.708 157.396 86.708 157.132 87.016C157.044 87.104 156.956 87.192 156.868 87.324C154.448 89.964 150.928 91.548 147.452 91.548C143.8 91.548 140.28 90.008 137.772 87.28C135.22 84.64 133.812 81.076 133.812 77.248C133.812 73.464 135.22 69.9 137.772 67.216C140.236 64.532 143.756 62.992 147.452 62.992C150.972 62.992 154.492 64.532 156.868 67.216C159.464 69.944 160.872 73.508 160.872 77.248C160.872 79.36 160.432 81.384 159.596 83.32C159.42 83.672 159.552 84.112 159.948 84.288C160.3 84.464 160.784 84.288 160.916 83.936C161.884 81.824 162.368 79.58 162.368 77.248C162.368 73.156 160.828 69.196 157.968 66.204ZM179.581 80.68C179.493 80.372 179.229 80.196 178.877 80.196H172.189C171.749 80.196 171.441 80.504 171.441 80.944V89.964C171.441 90.844 170.737 91.548 169.857 91.548C168.977 91.548 168.273 90.844 168.273 89.964V84.156C168.273 83.716 167.965 83.408 167.525 83.408C167.129 83.408 166.821 83.716 166.821 84.156V89.964C166.821 91.636 168.185 93 169.857 93C171.529 93 172.937 91.636 172.937 89.964V81.648H178.349C178.965 83.452 180.901 89.216 181.385 90.272C181.561 90.624 182.001 90.8 182.397 90.624C182.749 90.448 182.925 90.008 182.749 89.612C182.265 88.644 180.329 82.836 179.581 80.68ZM172.189 72.76C171.749 72.76 171.441 73.112 171.441 73.508V76.28C171.441 76.72 171.749 77.028 172.189 77.028H177.293C180.109 77.028 182.353 74.784 182.353 72.056C182.353 69.24 180.109 66.952 177.293 66.952H172.189C171.749 66.952 171.441 67.304 171.441 67.7V70.032C171.441 70.428 171.749 70.78 172.189 70.78C172.585 70.78 172.937 70.428 172.937 70.032V68.448H177.293C179.317 68.448 180.857 70.032 180.857 72.056C180.857 73.992 179.273 75.532 177.293 75.532H172.937V73.508C172.937 73.112 172.585 72.76 172.189 72.76ZM188.161 88.556C187.897 87.764 186.005 83.452 183.893 79.052C185.917 77.204 186.973 74.74 186.973 72.056C186.973 66.688 182.661 62.332 177.293 62.332H169.857C168.141 62.332 166.821 63.652 166.821 65.368V80.856C166.821 81.252 167.129 81.604 167.525 81.604C167.965 81.604 168.273 81.252 168.273 80.856V65.368C168.273 64.488 168.977 63.828 169.857 63.828H177.293C181.825 63.828 185.477 67.48 185.477 72.056C185.477 74.476 184.421 76.72 182.529 78.304C182.265 78.524 182.177 78.876 182.309 79.184C184.597 83.892 186.533 88.424 186.753 89.04C186.885 89.436 186.841 89.876 186.665 90.228C186.489 90.624 186.137 90.888 185.741 91.02C185.345 91.152 185.169 91.592 185.301 91.988C185.389 92.296 185.697 92.472 186.005 92.472C186.093 92.472 186.137 92.472 186.225 92.428C187.017 92.164 187.633 91.636 187.985 90.888C188.381 90.184 188.425 89.348 188.161 88.556ZM206.987 88.204C206.591 88.204 206.239 88.512 206.239 88.952V89.964C206.239 90.844 205.579 91.548 204.699 91.548C203.863 91.548 203.159 90.8 203.159 89.964V78.7C203.159 78.568 203.115 78.392 203.027 78.26L194.535 66.512C194.271 66.204 194.139 65.808 194.227 65.412C194.271 65.016 194.491 64.664 194.843 64.4C195.195 64.18 195.591 64.048 196.031 64.136C196.427 64.18 196.735 64.4 196.955 64.752L204.083 74.52C204.259 74.696 204.479 74.828 204.699 74.828C204.963 74.828 205.183 74.696 205.315 74.52L207.955 70.868C208.219 70.56 208.131 70.076 207.823 69.812C207.471 69.592 207.031 69.68 206.767 69.988L204.699 72.804L198.187 63.916C197.747 63.256 197.043 62.816 196.295 62.684C195.459 62.508 194.667 62.728 193.963 63.212C193.303 63.696 192.863 64.4 192.731 65.236C192.643 66.028 192.863 66.82 193.347 67.436L201.663 78.964V89.964C201.663 91.636 203.027 93 204.699 93C206.415 93 207.735 91.68 207.735 89.964V88.952C207.735 88.512 207.427 88.204 206.987 88.204ZM215.523 63.212C214.159 62.2 212.311 62.508 211.255 63.872L208.483 67.612C208.263 67.964 208.307 68.448 208.659 68.668C209.011 68.932 209.451 68.844 209.715 68.492L212.443 64.752C212.971 64.048 213.939 63.916 214.599 64.4C215.259 64.928 215.435 65.852 214.951 66.556L206.415 78.26C206.327 78.392 206.239 78.568 206.239 78.7V85.828C206.239 86.268 206.591 86.576 206.987 86.576C207.427 86.576 207.735 86.268 207.735 85.828V78.964L216.183 67.436C217.107 66.072 216.799 64.18 215.523 63.212Z" fill="#F8F4FF"/>
</g>
<g filter="url(#filter2_d)">
<rect x="48" y="50" width="140" height="1" fill="#F8F4FF"/>
</g>
<defs>
<filter id="filter0_d" x="0.303528" y="2.496" width="235.4" height="37.504" filterUnits="userSpaceOnUse" color-interpolation-filters="sRGB">
<feFlood flood-opacity="0" result="BackgroundImageFix"/>
<feColorMatrix in="SourceAlpha" type="matrix" values="0 0 0 0 0 0 0 0 0 0 0 0 0 0 0 0 0 0 127 0"/>
<feOffset/>
<feGaussianBlur stdDeviation="1.5"/>
<feColorMatrix type="matrix" values="0 0 0 0 0.0431373 0 0 0 0 0.854902 0 0 0 0 0.317647 0 0 0 1 0"/>
<feBlend mode="normal" in2="BackgroundImageFix" result="effect1_dropShadow"/>
<feBlend mode="normal" in="SourceGraphic" in2="effect1_dropShadow" result="shape"/>
</filter>
<filter id="filter1_d" x="16.2234" y="58.496" width="203.494" height="37.504" filterUnits="userSpaceOnUse" color-interpolation-filters="sRGB">
<feFlood flood-opacity="0" result="BackgroundImageFix"/>
<feColorMatrix in="SourceAlpha" type="matrix" values="0 0 0 0 0 0 0 0 0 0 0 0 0 0 0 0 0 0 127 0"/>
<feOffset/>
<feGaussianBlur stdDeviation="1.5"/>
<feColorMatrix type="matrix" values="0 0 0 0 0.972549 0 0 0 0 0.956863 0 0 0 0 1 0 0 0 1 0"/>
<feBlend mode="normal" in2="BackgroundImageFix" result="effect1_dropShadow"/>
<feBlend mode="normal" in="SourceGraphic" in2="effect1_dropShadow" result="shape"/>
</filter>
<filter id="filter2_d" x="43.5" y="45.5" width="149" height="10" filterUnits="userSpaceOnUse" color-interpolation-filters="sRGB">
<feFlood flood-opacity="0" result="BackgroundImageFix"/>
<feColorMatrix in="SourceAlpha" type="matrix" values="0 0 0 0 0 0 0 0 0 0 0 0 0 0 0 0 0 0 127 0"/>
<feMorphology radius="0.5" operator="dilate" in="SourceAlpha" result="effect1_dropShadow"/>
<feOffset/>
<feGaussianBlur stdDeviation="2"/>
<feColorMatrix type="matrix" values="0 0 0 0 0.972549 0 0 0 0 0.956863 0 0 0 0 1 0 0 0 1 0"/>
<feBlend mode="normal" in2="BackgroundImageFix" result="effect1_dropShadow"/>
<feBlend mode="normal" in="SourceGraphic" in2="effect1_dropShadow" result="shape"/>
</filter>
</defs>
</svg>
